<mxfile host="app.diagrams.net" modified="2021-09-30T09:29:46.341Z" agent="5.0 (Windows NT 10.0; Win64; x64) AppleWebKit/537.36 (KHTML, like Gecko) Chrome/94.0.4606.61 Safari/537.36 Edg/94.0.992.31" etag="jtBxvHivG4a00SZUcejp" version="15.3.8" type="github">
  <diagram id="C5RBs43oDa-KdzZeNtuy" name="Page-1">
    <mxGraphModel dx="1422" dy="794" grid="0" gridSize="10" guides="1" tooltips="1" connect="1" arrows="1" fold="1" page="1" pageScale="1" pageWidth="827" pageHeight="1169" math="0" shadow="0">
      <root>
        <mxCell id="WIyWlLk6GJQsqaUBKTNV-0" />
        <mxCell id="WIyWlLk6GJQsqaUBKTNV-1" parent="WIyWlLk6GJQsqaUBKTNV-0" />
        <mxCell id="WIyWlLk6GJQsqaUBKTNV-2" value="" style="rounded=0;html=1;jettySize=auto;orthogonalLoop=1;fontSize=11;endArrow=block;endFill=0;endSize=8;strokeWidth=1;shadow=0;labelBackgroundColor=none;edgeStyle=orthogonalEdgeStyle;entryX=0.5;entryY=0;entryDx=0;entryDy=0;gradientColor=#7ea6e0;fillColor=#dae8fc;strokeColor=#6c8ebf;" parent="WIyWlLk6GJQsqaUBKTNV-1" source="WIyWlLk6GJQsqaUBKTNV-3" target="cUTFmJFkuG4EMO1U3CI_-0" edge="1">
          <mxGeometry relative="1" as="geometry" />
        </mxCell>
        <mxCell id="WIyWlLk6GJQsqaUBKTNV-3" value="&lt;span style=&quot;font-size: 11px;&quot;&gt;SendUssd&lt;/span&gt;" style="rounded=1;whiteSpace=wrap;html=1;fontSize=12;glass=0;strokeWidth=1;shadow=0;gradientColor=#7ea6e0;fillColor=#dae8fc;strokeColor=#6c8ebf;labelBackgroundColor=#FFFFFF;" parent="WIyWlLk6GJQsqaUBKTNV-1" vertex="1">
          <mxGeometry x="260" y="160" width="120" height="40" as="geometry" />
        </mxCell>
        <mxCell id="cUTFmJFkuG4EMO1U3CI_-4" value="" style="edgeStyle=orthogonalEdgeStyle;rounded=0;orthogonalLoop=1;jettySize=auto;html=1;fontSize=11;gradientColor=#7ea6e0;fillColor=#dae8fc;strokeColor=#6c8ebf;" edge="1" parent="WIyWlLk6GJQsqaUBKTNV-1" source="WIyWlLk6GJQsqaUBKTNV-6" target="cUTFmJFkuG4EMO1U3CI_-3">
          <mxGeometry relative="1" as="geometry" />
        </mxCell>
        <mxCell id="cUTFmJFkuG4EMO1U3CI_-10" value="" style="edgeStyle=orthogonalEdgeStyle;rounded=0;orthogonalLoop=1;jettySize=auto;html=1;fontSize=11;entryX=0.5;entryY=0;entryDx=0;entryDy=0;gradientColor=#7ea6e0;fillColor=#dae8fc;strokeColor=#6c8ebf;" edge="1" parent="WIyWlLk6GJQsqaUBKTNV-1" source="WIyWlLk6GJQsqaUBKTNV-6" target="cUTFmJFkuG4EMO1U3CI_-14">
          <mxGeometry relative="1" as="geometry">
            <mxPoint x="320" y="680" as="targetPoint" />
          </mxGeometry>
        </mxCell>
        <mxCell id="cUTFmJFkuG4EMO1U3CI_-11" value="" style="edgeStyle=orthogonalEdgeStyle;rounded=0;orthogonalLoop=1;jettySize=auto;html=1;fontSize=11;entryX=0;entryY=0.5;entryDx=0;entryDy=0;gradientColor=#7ea6e0;fillColor=#dae8fc;strokeColor=#6c8ebf;" edge="1" parent="WIyWlLk6GJQsqaUBKTNV-1" source="WIyWlLk6GJQsqaUBKTNV-6" target="cUTFmJFkuG4EMO1U3CI_-15">
          <mxGeometry relative="1" as="geometry">
            <mxPoint x="450" y="550" as="targetPoint" />
          </mxGeometry>
        </mxCell>
        <mxCell id="WIyWlLk6GJQsqaUBKTNV-6" value="DCS Value" style="rhombus;whiteSpace=wrap;html=1;shadow=0;fontFamily=Helvetica;fontSize=12;align=center;strokeWidth=1;spacing=6;spacingTop=-4;gradientColor=#7ea6e0;fillColor=#dae8fc;strokeColor=#6c8ebf;" parent="WIyWlLk6GJQsqaUBKTNV-1" vertex="1">
          <mxGeometry x="270" y="510" width="100" height="80" as="geometry" />
        </mxCell>
        <mxCell id="WIyWlLk6GJQsqaUBKTNV-11" value="Return" style="rounded=1;whiteSpace=wrap;html=1;fontSize=12;glass=0;strokeWidth=1;shadow=0;gradientColor=#7ea6e0;fillColor=#dae8fc;strokeColor=#6c8ebf;" parent="WIyWlLk6GJQsqaUBKTNV-1" vertex="1">
          <mxGeometry x="260" y="803" width="120" height="40" as="geometry" />
        </mxCell>
        <mxCell id="cUTFmJFkuG4EMO1U3CI_-5" value="" style="edgeStyle=orthogonalEdgeStyle;rounded=0;orthogonalLoop=1;jettySize=auto;html=1;fontSize=11;gradientColor=#7ea6e0;fillColor=#dae8fc;strokeColor=#6c8ebf;" edge="1" parent="WIyWlLk6GJQsqaUBKTNV-1" source="cUTFmJFkuG4EMO1U3CI_-0" target="cUTFmJFkuG4EMO1U3CI_-1">
          <mxGeometry relative="1" as="geometry" />
        </mxCell>
        <mxCell id="cUTFmJFkuG4EMO1U3CI_-0" value="获取USSD指令，即USSD命令或者菜单选项" style="rounded=0;whiteSpace=wrap;html=1;fontSize=11;gradientColor=#7ea6e0;fillColor=#dae8fc;strokeColor=#6c8ebf;" vertex="1" parent="WIyWlLk6GJQsqaUBKTNV-1">
          <mxGeometry x="240" y="240" width="160" height="40" as="geometry" />
        </mxCell>
        <mxCell id="cUTFmJFkuG4EMO1U3CI_-6" value="" style="edgeStyle=orthogonalEdgeStyle;rounded=0;orthogonalLoop=1;jettySize=auto;html=1;fontSize=11;gradientColor=#7ea6e0;fillColor=#dae8fc;strokeColor=#6c8ebf;" edge="1" parent="WIyWlLk6GJQsqaUBKTNV-1" source="cUTFmJFkuG4EMO1U3CI_-1" target="cUTFmJFkuG4EMO1U3CI_-2">
          <mxGeometry relative="1" as="geometry" />
        </mxCell>
        <mxCell id="cUTFmJFkuG4EMO1U3CI_-1" value="&lt;span style=&quot;font-size: 11px&quot;&gt;do_at_cmd&lt;/span&gt;&lt;br&gt;执行AT+CUSD指令" style="rounded=0;whiteSpace=wrap;html=1;fontSize=11;gradientColor=#7ea6e0;fillColor=#dae8fc;strokeColor=#6c8ebf;" vertex="1" parent="WIyWlLk6GJQsqaUBKTNV-1">
          <mxGeometry x="260" y="320" width="120" height="40" as="geometry" />
        </mxCell>
        <mxCell id="cUTFmJFkuG4EMO1U3CI_-7" value="" style="edgeStyle=orthogonalEdgeStyle;rounded=0;orthogonalLoop=1;jettySize=auto;html=1;fontSize=11;gradientColor=#7ea6e0;fillColor=#dae8fc;strokeColor=#6c8ebf;" edge="1" parent="WIyWlLk6GJQsqaUBKTNV-1" source="cUTFmJFkuG4EMO1U3CI_-2" target="WIyWlLk6GJQsqaUBKTNV-6">
          <mxGeometry relative="1" as="geometry" />
        </mxCell>
        <mxCell id="cUTFmJFkuG4EMO1U3CI_-2" value="&lt;span style=&quot;font-size: 11px&quot;&gt;decode_ussd_output&lt;/span&gt;&lt;br&gt;解析AT指令结果" style="rounded=0;whiteSpace=wrap;html=1;fontSize=11;gradientColor=#7ea6e0;fillColor=#dae8fc;strokeColor=#6c8ebf;" vertex="1" parent="WIyWlLk6GJQsqaUBKTNV-1">
          <mxGeometry x="260" y="400" width="120" height="40" as="geometry" />
        </mxCell>
        <mxCell id="cUTFmJFkuG4EMO1U3CI_-3" value="SHORTMSG_Decode7bit" style="rounded=0;whiteSpace=wrap;html=1;fontSize=11;gradientColor=#7ea6e0;fillColor=#dae8fc;strokeColor=#6c8ebf;" vertex="1" parent="WIyWlLk6GJQsqaUBKTNV-1">
          <mxGeometry x="40" y="530" width="160" height="40" as="geometry" />
        </mxCell>
        <mxCell id="cUTFmJFkuG4EMO1U3CI_-9" value="GSM7" style="text;html=1;align=center;verticalAlign=middle;resizable=0;points=[];autosize=1;fontSize=11;gradientColor=#7ea6e0;fillColor=#dae8fc;strokeColor=#6c8ebf;" vertex="1" parent="WIyWlLk6GJQsqaUBKTNV-1">
          <mxGeometry x="220" y="520" width="50" height="20" as="geometry" />
        </mxCell>
        <mxCell id="cUTFmJFkuG4EMO1U3CI_-12" value="8 Bit Data" style="text;html=1;align=center;verticalAlign=middle;resizable=0;points=[];autosize=1;fontSize=11;gradientColor=#7ea6e0;fillColor=#dae8fc;strokeColor=#6c8ebf;" vertex="1" parent="WIyWlLk6GJQsqaUBKTNV-1">
          <mxGeometry x="365" y="518" width="70" height="20" as="geometry" />
        </mxCell>
        <mxCell id="cUTFmJFkuG4EMO1U3CI_-13" value="UCS-2" style="text;html=1;align=center;verticalAlign=middle;resizable=0;points=[];autosize=1;fontSize=11;gradientColor=#7ea6e0;fillColor=#dae8fc;strokeColor=#6c8ebf;" vertex="1" parent="WIyWlLk6GJQsqaUBKTNV-1">
          <mxGeometry x="330" y="601" width="50" height="20" as="geometry" />
        </mxCell>
        <mxCell id="cUTFmJFkuG4EMO1U3CI_-17" value="" style="edgeStyle=orthogonalEdgeStyle;rounded=0;orthogonalLoop=1;jettySize=auto;html=1;fontSize=11;gradientColor=#7ea6e0;fillColor=#dae8fc;strokeColor=#6c8ebf;" edge="1" parent="WIyWlLk6GJQsqaUBKTNV-1" source="cUTFmJFkuG4EMO1U3CI_-14" target="cUTFmJFkuG4EMO1U3CI_-16">
          <mxGeometry relative="1" as="geometry" />
        </mxCell>
        <mxCell id="cUTFmJFkuG4EMO1U3CI_-14" value="UCS2toUTF8Code" style="rounded=0;whiteSpace=wrap;html=1;fontSize=11;gradientColor=#7ea6e0;fillColor=#dae8fc;strokeColor=#6c8ebf;" vertex="1" parent="WIyWlLk6GJQsqaUBKTNV-1">
          <mxGeometry x="260" y="640" width="120" height="40" as="geometry" />
        </mxCell>
        <mxCell id="cUTFmJFkuG4EMO1U3CI_-15" value="SHORTMSG_Decode8bit" style="rounded=0;whiteSpace=wrap;html=1;fontSize=11;gradientColor=#7ea6e0;fillColor=#dae8fc;strokeColor=#6c8ebf;" vertex="1" parent="WIyWlLk6GJQsqaUBKTNV-1">
          <mxGeometry x="440" y="530" width="160" height="40" as="geometry" />
        </mxCell>
        <mxCell id="cUTFmJFkuG4EMO1U3CI_-21" value="" style="edgeStyle=orthogonalEdgeStyle;rounded=0;orthogonalLoop=1;jettySize=auto;html=1;fontSize=11;gradientColor=#7ea6e0;fillColor=#dae8fc;strokeColor=#6c8ebf;" edge="1" parent="WIyWlLk6GJQsqaUBKTNV-1" source="cUTFmJFkuG4EMO1U3CI_-16" target="WIyWlLk6GJQsqaUBKTNV-11">
          <mxGeometry relative="1" as="geometry" />
        </mxCell>
        <mxCell id="cUTFmJFkuG4EMO1U3CI_-16" value="send_response_webclient_socket&lt;br&gt;将AT指令执行结果返回给Web" style="rounded=0;whiteSpace=wrap;html=1;fontSize=11;gradientColor=#7ea6e0;fillColor=#dae8fc;strokeColor=#6c8ebf;" vertex="1" parent="WIyWlLk6GJQsqaUBKTNV-1">
          <mxGeometry x="200" y="720" width="240" height="40" as="geometry" />
        </mxCell>
        <mxCell id="cUTFmJFkuG4EMO1U3CI_-18" value="" style="endArrow=classic;html=1;fontSize=11;exitX=0.5;exitY=1;exitDx=0;exitDy=0;entryX=1;entryY=0.5;entryDx=0;entryDy=0;gradientColor=#7ea6e0;fillColor=#dae8fc;strokeColor=#6c8ebf;" edge="1" parent="WIyWlLk6GJQsqaUBKTNV-1" source="cUTFmJFkuG4EMO1U3CI_-15" target="cUTFmJFkuG4EMO1U3CI_-16">
          <mxGeometry width="50" height="50" relative="1" as="geometry">
            <mxPoint x="390" y="600" as="sourcePoint" />
            <mxPoint x="440" y="550" as="targetPoint" />
            <Array as="points">
              <mxPoint x="520" y="740" />
            </Array>
          </mxGeometry>
        </mxCell>
        <mxCell id="cUTFmJFkuG4EMO1U3CI_-20" value="" style="endArrow=classic;html=1;fontSize=11;exitX=0.5;exitY=1;exitDx=0;exitDy=0;entryX=0;entryY=0.5;entryDx=0;entryDy=0;entryPerimeter=0;gradientColor=#7ea6e0;fillColor=#dae8fc;strokeColor=#6c8ebf;" edge="1" parent="WIyWlLk6GJQsqaUBKTNV-1" source="cUTFmJFkuG4EMO1U3CI_-3" target="cUTFmJFkuG4EMO1U3CI_-16">
          <mxGeometry width="50" height="50" relative="1" as="geometry">
            <mxPoint x="390" y="600" as="sourcePoint" />
            <mxPoint x="440" y="550" as="targetPoint" />
            <Array as="points">
              <mxPoint x="120" y="740" />
            </Array>
          </mxGeometry>
        </mxCell>
      </root>
    </mxGraphModel>
  </diagram>
</mxfile>
